<?xml version="1.0" standalone="no"?>
<!DOCTYPE svg PUBLIC "-//W3C//DTD SVG 20010904//EN"
 "http://www.w3.org/TR/2001/REC-SVG-20010904/DTD/svg10.dtd">
<svg version="1.0" xmlns="http://www.w3.org/2000/svg"
 width="828.000000pt" height="828.000000pt" viewBox="0 0 828.000000 828.000000"
 preserveAspectRatio="xMidYMid meet">
<metadata>
Created by potrace 1.14, written by Peter Selinger 2001-2017
</metadata>
<g transform="translate(0.000000,828.000000) scale(0.100000,-0.100000)"
fill="#000000" stroke="none">
<path d="M3827 6199 c-32 -3 -63 -11 -69 -17 -6 -6 -32 -8 -63 -5 -39 4 -70 0
-121 -17 -125 -41 -188 -81 -294 -185 -23 -22 -35 -25 -96 -25 -272 0 -478
-200 -443 -430 12 -83 26 -122 74 -214 25 -47 45 -87 45 -89 0 -2 -9 -14 -19
-26 -11 -13 -37 -75 -58 -139 -38 -116 -38 -119 -38 -277 0 -88 2 -180 5 -204
l5 -45 -62 -24 c-64 -25 -67 -29 -77 -94 -5 -30 -2 -41 18 -63 20 -21 26 -41
31 -103 19 -221 39 -287 113 -361 48 -49 67 -61 119 -75 197 -53 405 -18 497
84 71 79 145 267 167 423 12 83 15 91 56 137 49 54 83 67 156 56 31 -5 57 -19
94 -51 49 -43 51 -48 58 -107 15 -146 95 -329 183 -418 84 -85 141 -105 297
-103 137 1 240 20 314 58 139 70 187 170 200 412 7 117 8 124 35 152 26 27 28
34 21 78 -4 26 -11 53 -17 60 -5 7 -35 17 -66 23 -89 18 -91 19 -155 81 -105
103 -193 137 -319 124 -83 -8 -201 -37 -263 -64 -83 -37 -154 -110 -92 -96 66
15 271 35 361 35 172 0 235 -23 75 -27 -270 -7 -465 -63 -545 -157 l-34 -39
-41 33 c-70 55 -146 73 -206 48 -15 -6 -49 -32 -75 -56 l-46 -44 -17 26 c-43
65 -164 104 -351 113 -68 3 -121 9 -119 14 12 18 155 32 283 26 144 -7 159 -1
99 40 -110 74 -300 103 -387 58 -31 -16 -70 -58 -99 -106 -18 -31 -28 -38 -67
-44 -25 -3 -48 -4 -52 -1 -11 12 17 261 38 341 65 241 154 382 288 453 84 45
172 62 327 62 130 0 338 16 600 46 331 38 595 -24 745 -176 99 -101 153 -214
190 -402 16 -79 51 -208 79 -288 27 -80 61 -191 75 -247 13 -56 31 -115 38
-130 17 -37 49 -37 66 0 13 27 15 27 27 10 12 -16 15 -16 29 -3 20 20 34 145
42 395 10 313 -12 464 -86 580 -21 33 -46 87 -55 120 -20 71 -62 153 -86 165
-11 6 -19 29 -23 70 -4 33 -12 74 -18 92 -22 64 -89 149 -155 197 -36 25 -86
66 -112 91 -53 51 -248 156 -354 189 -182 58 -471 84 -670 60z m636 -1556 c-7
-2 -21 -2 -30 0 -10 3 -4 5 12 5 17 0 24 -2 18 -5z m190 0 c-7 -2 -21 -2 -30
0 -10 3 -4 5 12 5 17 0 24 -2 18 -5z m74 -9 c-3 -3 -12 -4 -19 -1 -8 3 -5 6 6
6 11 1 17 -2 13 -5z m2 -25 c59 -13 100 -44 118 -88 18 -43 20 -301 3 -391
-23 -122 -86 -188 -218 -231 -56 -18 -95 -22 -229 -24 -90 -2 -160 1 -158 5 3
5 -10 13 -29 20 -19 6 -54 33 -79 59 -122 130 -211 447 -150 529 41 56 179
104 346 122 108 11 346 11 396 -1z m-1365 -84 c126 -34 151 -68 144 -195 -3
-44 -7 -83 -10 -86 -3 -3 -27 10 -52 29 -72 56 -147 80 -246 81 -149 2 -240
-61 -263 -179 -12 -62 10 -60 38 2 24 55 53 86 110 120 37 22 46 15 24 -21
-40 -69 -35 -170 12 -230 19 -24 26 -26 103 -26 76 0 86 2 124 30 23 17 53 30
67 30 14 0 25 4 25 8 0 5 7 17 15 28 24 31 -44 -128 -72 -168 -28 -41 -95 -87
-158 -108 -55 -19 -225 -17 -298 3 -156 42 -218 163 -218 428 -1 197 20 227
176 258 90 18 108 19 265 16 102 -2 175 -9 214 -20z m-124 -250 c17 -20 5 -62
-20 -70 -44 -14 -80 41 -48 73 17 17 53 15 68 -3z m250 -73 c0 -9 -5 -24 -10
-32 -7 -11 -10 -5 -10 23 0 23 4 36 10 32 6 -3 10 -14 10 -23z m1077 -338 c-3
-3 -12 -4 -19 -1 -8 3 -5 6 6 6 11 1 17 -2 13 -5z"/>
<path d="M4370 4409 c-106 -18 -217 -88 -256 -161 -8 -15 -14 -44 -14 -65 l1
-38 23 49 c23 46 82 116 98 116 4 0 3 -12 -2 -26 -24 -63 -6 -148 43 -201 18
-20 30 -23 102 -23 73 0 86 3 129 31 48 30 83 32 73 4 -13 -31 25 -1 43 36 26
51 26 128 0 179 -11 22 -18 40 -15 40 23 0 91 -48 133 -95 32 -35 52 -50 52
-40 0 46 -75 128 -146 160 -95 42 -161 51 -264 34z m0 -83 c31 -38 -9 -89 -54
-68 -45 20 -30 82 20 82 12 0 27 -7 34 -14z"/>
<path d="M2787 4489 c-11 -6 -15 -18 -12 -32 21 -102 49 -207 54 -207 3 0 5
15 5 33 -1 17 -2 74 -3 125 -1 95 -5 103 -44 81z"/>
<path d="M5405 4099 c-16 -16 -25 -29 -20 -29 6 0 23 14 39 30 38 39 20 38
-19 -1z"/>
<path d="M3544 3705 c6 -48 47 -89 103 -104 91 -26 229 -1 259 45 24 36 11 40
-48 14 -39 -18 -72 -24 -128 -24 -92 -1 -146 22 -173 74 l-19 35 6 -40z"/>
<path d="M5196 3719 c-2 -8 -9 -32 -15 -54 -6 -22 -22 -77 -36 -123 -14 -46
-22 -88 -19 -94 4 -6 2 -8 -4 -5 -10 7 -78 -100 -74 -115 1 -5 -2 -8 -8 -8 -5
0 -10 -6 -10 -13 0 -7 -16 -29 -36 -49 -27 -29 -34 -42 -29 -59 5 -13 3 -19
-3 -15 -5 3 -25 -18 -43 -47 -37 -57 -143 -189 -201 -252 -21 -22 -38 -44 -38
-48 0 -5 -4 -5 -10 -2 -5 3 -10 -1 -10 -10 0 -8 -10 -20 -22 -25 -13 -4 -41
-25 -63 -45 -22 -19 -50 -38 -62 -41 -13 -4 -21 -10 -18 -14 3 -5 -4 -11 -15
-15 -11 -3 -26 -12 -32 -19 -7 -7 -26 -19 -43 -27 -16 -9 -60 -32 -96 -52
-185 -102 -329 -143 -473 -134 -50 3 -102 8 -116 11 -14 3 -5 -1 20 -10 33
-11 74 -14 155 -11 94 3 126 9 221 40 137 46 339 145 463 227 108 72 290 244
366 345 50 67 130 200 189 315 44 84 54 93 101 87 41 -5 34 0 -29 23 l-29 11
7 83 c4 47 11 99 16 117 5 18 8 35 5 37 -2 3 -6 -1 -9 -9z"/>
<path d="M2862 3486 c1 -14 5 -23 9 -20 7 4 0 44 -7 44 -2 0 -3 -11 -2 -24z"/>
<path d="M2870 3441 c0 -6 4 -13 10 -16 6 -3 7 1 4 9 -7 18 -14 21 -14 7z"/>
<path d="M2891 3390 c0 -8 4 -22 9 -30 12 -18 12 -2 0 25 -6 13 -9 15 -9 5z"/>
<path d="M3526 3385 c-149 -31 -187 -53 -170 -101 26 -69 164 -220 164 -179 0
9 -4 13 -10 10 -5 -3 -10 -1 -10 4 0 6 16 11 35 11 19 0 44 5 54 12 15 9 25 7
53 -10 36 -22 94 -31 83 -12 -3 6 0 10 7 11 7 0 45 3 83 5 166 9 201 11 227
18 15 5 35 3 47 -3 39 -21 99 -16 127 10 73 66 103 141 69 169 -8 6 -67 23
-132 37 -102 22 -149 26 -338 29 -162 2 -238 -1 -289 -11z m524 -25 c36 -5 88
-18 115 -29 42 -16 47 -21 30 -27 -11 -4 -37 -23 -58 -43 -27 -26 -41 -33 -51
-26 -56 42 -63 43 -171 48 -60 2 -161 1 -224 -3 -109 -6 -115 -8 -136 -34
l-22 -28 -32 34 c-37 39 -38 51 -10 77 20 18 86 34 194 45 57 6 288 -3 365
-14z"/>
<path d="M2934 3264 c14 -54 121 -255 182 -340 72 -101 176 -210 254 -267 30
-22 66 -51 79 -64 13 -13 30 -23 37 -23 8 0 14 -3 14 -7 0 -10 87 -58 120 -67
14 -4 -1 8 -32 26 -68 39 -275 215 -335 284 -99 114 -201 249 -181 239 7 -4 6
-1 -3 7 -9 7 -19 23 -23 36 -4 12 -12 22 -17 22 -6 0 -8 4 -4 9 3 5 1 12 -5
16 -5 3 -26 40 -46 81 -36 76 -51 94 -40 48z"/>
</g>
</svg>
